<?xml version="1.0" encoding="utf-8"?>
<!-- Generator: Adobe Illustrator 27.3.1, SVG Export Plug-In . SVG Version: 6.00 Build 0)  -->
<svg version="1.1" id="_レイヤー_2" xmlns="http://www.w3.org/2000/svg" xmlns:xlink="http://www.w3.org/1999/xlink" x="0px"
	 y="0px" viewBox="0 0 200.5 77.9" style="enable-background:new 0 0 200.5 77.9;" xml:space="preserve">
<style type="text/css">
	.st0{fill:#FFFFFF;}
	.st1{fill:none;stroke:#322818;stroke-width:6;stroke-miterlimit:10;}
	.st2{fill:none;stroke:#FFFFFF;stroke-width:2;stroke-miterlimit:10;}
	.st3{enable-background:new    ;}
	.st4{fill:#322818;}
</style>
<path class="st0" d="M58.6,25.8v29.3L8,74.3c0,0-7.8-10.7,2.9-17.8c0,0-7.1-2.1-7.1-9.3c0-6.4,7.1-9.3,7.1-9.3S3,35.8,3,29.4
	c0-7.1,7.8-7.8,7.8-7.8S0.1,14.4,8,3.7L58.6,25.8z"/>
<path class="st1" d="M58.6,25.8v29.3L8,74.3c0,0-7.8-10.7,2.9-17.8c0,0-7.1-2.1-7.1-9.3c0-6.4,7.1-9.3,7.1-9.3S3,35.8,3,29.4
	c0-7.1,7.8-7.8,7.8-7.8S0.1,14.4,8,3.7L58.6,25.8z"/>
<path class="st2" d="M58.6,25.8v29.3L8,74.3c0,0-7.8-10.7,2.9-17.8c0,0-7.1-2.1-7.1-9.3c0-6.4,7.1-9.3,7.1-9.3S3,35.8,3,29.4
	c0-7.1,7.8-7.8,7.8-7.8S0.1,14.4,8,3.7L58.6,25.8z"/>
<path class="st0" d="M142,25.8v29.3l50.6,19.1c0,0,7.8-10.7-2.9-17.8c0,0,7.1-2.1,7.1-9.3c0-6.4-7.1-9.3-7.1-9.3s7.8-2.1,7.8-8.5
	c0-7.1-7.8-7.8-7.8-7.8s10.7-7.1,2.9-17.8C192.6,3.7,142,25.8,142,25.8z"/>
<path class="st1" d="M142,25.8v29.3l50.6,19.1c0,0,7.8-10.7-2.9-17.8c0,0,7.1-2.1,7.1-9.3c0-6.4-7.1-9.3-7.1-9.3s7.8-2.1,7.8-8.5
	c0-7.1-7.8-7.8-7.8-7.8s10.7-7.1,2.9-17.8C192.6,3.7,142,25.8,142,25.8z"/>
<path class="st2" d="M142,25.8v29.3l50.6,19.1c0,0,7.8-10.7-2.9-17.8c0,0,7.1-2.1,7.1-9.3c0-6.4-7.1-9.3-7.1-9.3s7.8-2.1,7.8-8.5
	c0-7.1-7.8-7.8-7.8-7.8s10.7-7.1,2.9-17.8C192.6,3.7,142,25.8,142,25.8z"/>
<path class="st0" d="M48.1,7.2H154c4.4,0,8,3.6,8,8v47.6c0,4.4-3.6,8-8,8H48.1c-4.4,0-8-3.6-8-8V15.2C40.1,10.7,43.7,7.2,48.1,7.2z"
	/>
<path class="st1" d="M48.1,7.2H154c4.4,0,8,3.6,8,8v47.6c0,4.4-3.6,8-8,8H48.1c-4.4,0-8-3.6-8-8V15.2C40.1,10.7,43.7,7.2,48.1,7.2z"
	/>
<path class="st2" d="M48.1,7.2H154c4.4,0,8,3.6,8,8v47.6c0,4.4-3.6,8-8,8H48.1c-4.4,0-8-3.6-8-8V15.2C40.1,10.7,43.7,7.2,48.1,7.2z"
	/>
<g class="st3">
	<path class="st4" d="M76.4,22.8c1.1,0,1.9,0.2,2.5,0.7c0.6,0.5,0.9,1.2,0.9,2c0,0.5-0.1,0.9-0.4,1.3c-0.3,0.4-0.7,0.7-1.2,0.9
		c0.5,0.2,0.9,0.5,1.2,0.9s0.4,0.9,0.4,1.5v0.8c0,0.3,0,0.5,0.1,0.7c0.1,0.1,0.2,0.2,0.4,0.3l0.3,0v0.9h-0.7c-0.5,0-0.9-0.2-1.1-0.5
		c-0.2-0.4-0.3-0.8-0.3-1.3v-0.8c0-0.5-0.2-1-0.5-1.3c-0.3-0.3-0.7-0.5-1.3-0.5h-2.2v3.4l1.1,0.2v0.9h-3.6v-0.9l1.1-0.2v-7.8
		l-1.1-0.2v-0.9h1.1H76.4z M74.5,27.2h1.8c0.8,0,1.3-0.1,1.6-0.4c0.3-0.3,0.5-0.7,0.5-1.3c0-0.5-0.2-0.9-0.5-1.2s-0.8-0.5-1.5-0.5
		h-1.9V27.2z"/>
	<path class="st4" d="M84.1,23.7l-1.1,0.1l2.1,4.1l2.1-4.1l-1.1-0.1v-0.9h3.4v0.9l-0.8,0.1l-2.9,5.4v2.4l1.1,0.2v0.9h-3.6v-0.9
		l1.1-0.2v-2.5l-2.9-5.3l-0.8-0.1v-0.9h3.4V23.7z"/>
	<path class="st4" d="M93.3,22.8v0.9l-1.1,0.2v5.7c0,0.8,0.2,1.3,0.6,1.7c0.4,0.4,1,0.6,1.7,0.6c0.7,0,1.3-0.2,1.8-0.6
		c0.5-0.4,0.7-1,0.7-1.7v-5.7l-1.1-0.2v-0.9h2.5h1.1v0.9l-1.1,0.2v5.7c0,1.1-0.4,1.9-1.1,2.5s-1.6,0.9-2.7,0.9c-1.1,0-2-0.3-2.7-0.9
		c-0.7-0.6-1-1.4-1-2.5v-5.7l-1.1-0.2v-0.9h1.1H93.3z"/>
	<path class="st4" d="M100.4,31.9l1.1-0.2v-7.8l-1.1-0.2v-0.9h3.6v0.9l-1.1,0.2v3.3h1l2.8-3.4l-0.7-0.1v-0.9h3.2v0.9l-0.9,0.2
		l-3,3.8l3.3,4.1l0.9,0.2v0.9h-3.3v-0.9l0.8-0.1l-2.8-3.5h-1.2v3.4l1.1,0.2v0.9h-3.6V31.9z"/>
	<path class="st4" d="M113.6,23.7l-1.1,0.1l2.1,4.1l2.1-4.1l-1.1-0.1v-0.9h3.4v0.9l-0.8,0.1l-2.9,5.4v2.4l1.1,0.2v0.9h-3.6v-0.9
		l1.1-0.2v-2.5l-2.9-5.3l-0.8-0.1v-0.9h3.4V23.7z"/>
	<path class="st4" d="M122.8,22.8v0.9l-1.1,0.2v5.7c0,0.8,0.2,1.3,0.6,1.7c0.4,0.4,1,0.6,1.7,0.6c0.7,0,1.3-0.2,1.8-0.6
		c0.5-0.4,0.7-1,0.7-1.7v-5.7l-1.1-0.2v-0.9h2.5h1.1v0.9l-1.1,0.2v5.7c0,1.1-0.4,1.9-1.1,2.5c-0.7,0.6-1.6,0.9-2.7,0.9
		c-1.1,0-2-0.3-2.7-0.9c-0.7-0.6-1-1.4-1-2.5v-5.7l-1.1-0.2v-0.9h1.1H122.8z"/>
</g>
<g class="st3">
	<path class="st4" d="M66.2,46.6h-1.3l-0.3-1.9c-0.3-0.3-0.6-0.5-1.1-0.7c-0.4-0.2-0.9-0.3-1.5-0.3c-1.4,0-2.4,0.5-3.2,1.5
		c-0.7,1-1.1,2.3-1.1,3.8v0.2c0,1.5,0.4,2.8,1.1,3.8c0.7,1,1.7,1.5,3,1.5c0.6,0,1.1-0.1,1.6-0.3c0.5-0.2,0.9-0.4,1.1-0.7l0.3-1.9
		h1.3v2.4c-0.4,0.5-1,0.9-1.7,1.3c-0.8,0.4-1.7,0.6-2.7,0.6c-1.7,0-3.1-0.6-4.2-1.9c-1.1-1.3-1.7-2.9-1.7-4.8v-0.2
		c0-1.9,0.5-3.5,1.6-4.8s2.5-1.9,4.3-1.9c1,0,1.9,0.2,2.7,0.6c0.8,0.4,1.3,0.8,1.7,1.3V46.6z"/>
	<path class="st4" d="M67.8,54.6l1-0.1l4.6-12h1.5l4.5,12l1,0.1v1.1h-3.8v-1.1l1-0.2L76.8,52h-5.3l-0.9,2.4l1,0.2v1.1h-3.8V54.6z
		 M72,50.5h4.2l-2.1-5.7h-0.1L72,50.5z"/>
	<path class="st4" d="M87.4,42.5c1.4,0,2.6,0.3,3.3,1c0.8,0.6,1.2,1.5,1.2,2.7c0,0.6-0.2,1.2-0.5,1.7c-0.4,0.5-0.9,0.9-1.5,1.2
		c0.7,0.2,1.2,0.6,1.6,1.2c0.3,0.5,0.5,1.2,0.5,2v1.1c0,0.4,0.1,0.7,0.2,0.9c0.1,0.2,0.3,0.3,0.5,0.3l0.4,0.1v1.2h-1
		c-0.7,0-1.2-0.2-1.5-0.7S90,54,90,53.3v-1c0-0.7-0.2-1.3-0.6-1.7c-0.4-0.4-1-0.7-1.7-0.7h-2.9v4.5l1.5,0.3v1.1h-4.8v-1.1l1.5-0.3
		V43.9l-1.5-0.3v-1.1H83H87.4z M84.8,48.5h2.4c1,0,1.7-0.2,2.2-0.6c0.5-0.4,0.7-0.9,0.7-1.7c0-0.7-0.2-1.2-0.7-1.7s-1.1-0.6-2-0.6
		h-2.5V48.5z"/>
	<path class="st4" d="M94,54.6l1-0.1l4.6-12h1.5l4.5,12l1,0.1v1.1h-3.8v-1.1l1-0.2L103,52h-5.3l-0.9,2.4l1,0.2v1.1H94V54.6z
		 M98.3,50.5h4.2l-2.1-5.7h-0.1L98.3,50.5z"/>
	<path class="st4" d="M120.8,45.2L120.8,45.2l-4.3,10.6h-1.2L111,45.2l0,0l0.2,5.4v3.8l1.5,0.3v1.1h-4.8v-1.1l1.5-0.3V43.9l-1.5-0.3
		v-1.2h1.5h2.3l4.2,10.8h0.1l4.2-10.8h3.8v1.2l-1.5,0.3v10.4l1.5,0.3v1.1h-4.8v-1.1l1.5-0.3v-3.8L120.8,45.2z"/>
	<path class="st4" d="M125.2,55.8v-1.1l1.5-0.3V43.9l-1.5-0.3v-1.2h10.2v3.2h-1.5l-0.1-1.8h-5.2v4.3h5.1v1.4h-5.1v4.7h5.3l0.1-1.8
		h1.5v3.2H125.2z"/>
	<path class="st4" d="M137,55.8v-1.1l1.5-0.3V43.9l-1.5-0.3v-1.2h1.5h1.8h1.5v1.2l-1.5,0.3v10.4h4.6l0.1-1.5h1.5v2.9H137z"/>
</g>
</svg>
